<mxfile host="app.diagrams.net" modified="2023-11-30T03:01:21.432Z" agent="Mozilla/5.0 (Windows NT 10.0; Win64; x64; rv:120.0) Gecko/20100101 Firefox/120.0" etag="ZB_C1oWbdwSpp4viKrxK" version="22.1.5" type="device">
  <diagram name="Страница — 1" id="rbNTybLnuKwwuUy_w8I2">
    <mxGraphModel dx="964" dy="520" grid="1" gridSize="10" guides="1" tooltips="1" connect="1" arrows="1" fold="1" page="1" pageScale="1" pageWidth="1169" pageHeight="827" math="0" shadow="0">
      <root>
        <mxCell id="0" />
        <mxCell id="1" parent="0" />
        <mxCell id="5bhoiMZrqQOalWlNTHP4-1" value="" style="verticalLabelPosition=bottom;verticalAlign=top;html=1;shadow=0;dashed=0;strokeWidth=1;shape=mxgraph.android.phone2;strokeColor=#c0c0c0;" vertex="1" parent="1">
          <mxGeometry x="20" y="20" width="200" height="390" as="geometry" />
        </mxCell>
        <mxCell id="5bhoiMZrqQOalWlNTHP4-2" value="" style="strokeWidth=1;shadow=0;dashed=0;align=center;html=1;shape=mxgraph.mockup.forms.rrect;rSize=0;strokeColor=#999999;fillColor=#ffffff;" vertex="1" parent="1">
          <mxGeometry x="40" y="110" width="160" height="260" as="geometry" />
        </mxCell>
        <mxCell id="5bhoiMZrqQOalWlNTHP4-3" value="Sign In" style="strokeWidth=1;shadow=0;dashed=0;align=center;html=1;shape=mxgraph.mockup.forms.anchor;fontSize=12;fontColor=#666666;align=left;resizeWidth=1;spacingLeft=0;" vertex="1" parent="5bhoiMZrqQOalWlNTHP4-2">
          <mxGeometry width="80" height="20" relative="1" as="geometry">
            <mxPoint x="10" as="offset" />
          </mxGeometry>
        </mxCell>
        <mxCell id="5bhoiMZrqQOalWlNTHP4-4" value="" style="shape=line;strokeColor=#ddeeff;strokeWidth=2;html=1;resizeWidth=1;" vertex="1" parent="5bhoiMZrqQOalWlNTHP4-2">
          <mxGeometry width="144" height="40" relative="1" as="geometry">
            <mxPoint x="10" as="offset" />
          </mxGeometry>
        </mxCell>
        <mxCell id="5bhoiMZrqQOalWlNTHP4-5" value="User Name:" style="strokeWidth=1;shadow=0;dashed=0;align=center;html=1;shape=mxgraph.mockup.forms.anchor;fontSize=12;fontColor=#666666;align=left;resizeWidth=1;spacingLeft=0;" vertex="1" parent="5bhoiMZrqQOalWlNTHP4-2">
          <mxGeometry width="80" height="20" relative="1" as="geometry">
            <mxPoint x="10" y="30" as="offset" />
          </mxGeometry>
        </mxCell>
        <mxCell id="5bhoiMZrqQOalWlNTHP4-6" value="johndoe" style="strokeWidth=1;shadow=0;dashed=0;align=center;html=1;shape=mxgraph.mockup.forms.rrect;rSize=0;strokeColor=#999999;fontColor=#666666;align=left;spacingLeft=5;resizeWidth=1;" vertex="1" parent="5bhoiMZrqQOalWlNTHP4-2">
          <mxGeometry width="120" height="25" relative="1" as="geometry">
            <mxPoint x="10" y="50" as="offset" />
          </mxGeometry>
        </mxCell>
        <mxCell id="5bhoiMZrqQOalWlNTHP4-7" value="Password:" style="strokeWidth=1;shadow=0;dashed=0;align=center;html=1;shape=mxgraph.mockup.forms.anchor;fontSize=12;fontColor=#666666;align=left;resizeWidth=1;spacingLeft=0;" vertex="1" parent="5bhoiMZrqQOalWlNTHP4-2">
          <mxGeometry width="80" height="20" relative="1" as="geometry">
            <mxPoint x="10" y="80" as="offset" />
          </mxGeometry>
        </mxCell>
        <mxCell id="5bhoiMZrqQOalWlNTHP4-8" value="********" style="strokeWidth=1;shadow=0;dashed=0;align=center;html=1;shape=mxgraph.mockup.forms.rrect;rSize=0;strokeColor=#999999;fontColor=#666666;align=left;spacingLeft=5;resizeWidth=1;" vertex="1" parent="5bhoiMZrqQOalWlNTHP4-2">
          <mxGeometry width="120" height="25" relative="1" as="geometry">
            <mxPoint x="10" y="100" as="offset" />
          </mxGeometry>
        </mxCell>
        <mxCell id="5bhoiMZrqQOalWlNTHP4-9" value="SIGN IN" style="strokeWidth=1;shadow=0;dashed=0;align=center;html=1;shape=mxgraph.mockup.forms.rrect;rSize=5;strokeColor=#006EAF;fontColor=#ffffff;fillColor=#1ba1e2;fontSize=16;fontStyle=1;" vertex="1" parent="5bhoiMZrqQOalWlNTHP4-2">
          <mxGeometry y="1" width="80" height="30" relative="1" as="geometry">
            <mxPoint x="20" y="-130" as="offset" />
          </mxGeometry>
        </mxCell>
        <mxCell id="5bhoiMZrqQOalWlNTHP4-10" value="Forgot Password?" style="strokeWidth=1;shadow=0;dashed=0;align=center;html=1;shape=mxgraph.mockup.forms.anchor;fontSize=12;fontColor=#9999ff;align=left;spacingLeft=0;fontStyle=4;resizeWidth=1;" vertex="1" parent="5bhoiMZrqQOalWlNTHP4-2">
          <mxGeometry y="1" width="120" height="20" relative="1" as="geometry">
            <mxPoint x="10" y="-90" as="offset" />
          </mxGeometry>
        </mxCell>
        <mxCell id="5bhoiMZrqQOalWlNTHP4-11" value="" style="shape=line;strokeColor=#ddeeff;strokeWidth=2;html=1;resizeWidth=1;" vertex="1" parent="5bhoiMZrqQOalWlNTHP4-2">
          <mxGeometry y="1" width="144" height="30" relative="1" as="geometry">
            <mxPoint x="10" y="-81" as="offset" />
          </mxGeometry>
        </mxCell>
        <mxCell id="5bhoiMZrqQOalWlNTHP4-12" value="New User" style="strokeWidth=1;shadow=0;dashed=0;align=center;html=1;shape=mxgraph.mockup.forms.anchor;fontSize=12;fontColor=#666666;align=left;spacingLeft=0;resizeWidth=1;" vertex="1" parent="5bhoiMZrqQOalWlNTHP4-2">
          <mxGeometry y="1" width="120" height="29" relative="1" as="geometry">
            <mxPoint x="10" y="-70" as="offset" />
          </mxGeometry>
        </mxCell>
        <mxCell id="5bhoiMZrqQOalWlNTHP4-13" value="SIGN UP" style="strokeWidth=1;shadow=0;dashed=0;align=center;html=1;shape=mxgraph.mockup.forms.rrect;rSize=5;strokeColor=#006EAF;fontColor=#ffffff;fillColor=#1ba1e2;fontSize=16;fontStyle=1;" vertex="1" parent="5bhoiMZrqQOalWlNTHP4-2">
          <mxGeometry y="1" width="80" height="30" relative="1" as="geometry">
            <mxPoint x="20" y="-40" as="offset" />
          </mxGeometry>
        </mxCell>
        <mxCell id="5bhoiMZrqQOalWlNTHP4-14" value="&lt;font style=&quot;font-size: 21px;&quot;&gt;&lt;b&gt;Coffee &amp;amp; drinks&lt;/b&gt;&lt;/font&gt;" style="strokeWidth=1;shadow=0;dashed=0;align=center;html=1;shape=mxgraph.mockup.text.captcha;fontColor=#666666;fontSize=25;strokeColor=#666666;mainText=" vertex="1" parent="1">
          <mxGeometry x="40" y="60" width="160" height="40" as="geometry" />
        </mxCell>
        <mxCell id="5bhoiMZrqQOalWlNTHP4-15" value="" style="verticalLabelPosition=bottom;verticalAlign=top;html=1;shadow=0;dashed=0;strokeWidth=1;shape=mxgraph.android.phone2;strokeColor=#c0c0c0;" vertex="1" parent="1">
          <mxGeometry x="230" y="20" width="200" height="390" as="geometry" />
        </mxCell>
        <mxCell id="5bhoiMZrqQOalWlNTHP4-16" value="" style="html=1;shadow=0;dashed=0;strokeColor=none;strokeWidth=1;fillColor=#777777;fontColor=#555555;whiteSpace=wrap;align=center;verticalAlign=middle;fontStyle=0;fontSize=40;" vertex="1" parent="1">
          <mxGeometry x="450" y="110" width="180" height="90" as="geometry" />
        </mxCell>
        <mxCell id="5bhoiMZrqQOalWlNTHP4-17" value="" style="html=1;verticalLabelPosition=bottom;labelBackgroundColor=#ffffff;verticalAlign=top;shadow=0;dashed=0;strokeWidth=4;shape=mxgraph.ios7.misc.more;strokeColor=#a0a0a0;" vertex="1" parent="5bhoiMZrqQOalWlNTHP4-16">
          <mxGeometry x="1" y="0.5" width="7" height="14" relative="1" as="geometry">
            <mxPoint x="-20" y="-7" as="offset" />
          </mxGeometry>
        </mxCell>
        <mxCell id="5bhoiMZrqQOalWlNTHP4-18" value="" style="flipH=1;html=1;verticalLabelPosition=bottom;labelBackgroundColor=#ffffff;verticalAlign=top;shadow=0;dashed=0;strokeWidth=4;shape=mxgraph.ios7.misc.more;strokeColor=#a0a0a0;" vertex="1" parent="5bhoiMZrqQOalWlNTHP4-16">
          <mxGeometry y="0.5" width="7" height="14" relative="1" as="geometry">
            <mxPoint x="10" y="-7" as="offset" />
          </mxGeometry>
        </mxCell>
        <mxCell id="5bhoiMZrqQOalWlNTHP4-19" value="" style="html=1;shadow=0;strokeColor=none;fillColor=#ffffff;" vertex="1" parent="5bhoiMZrqQOalWlNTHP4-16">
          <mxGeometry x="0.5" y="1" width="30" height="4" relative="1" as="geometry">
            <mxPoint x="-50" y="-20" as="offset" />
          </mxGeometry>
        </mxCell>
        <mxCell id="5bhoiMZrqQOalWlNTHP4-20" value="" style="html=1;shadow=0;strokeColor=none;fillColor=#BBBBBB;" vertex="1" parent="5bhoiMZrqQOalWlNTHP4-16">
          <mxGeometry x="0.5" y="1" width="30" height="4" relative="1" as="geometry">
            <mxPoint x="-15" y="-20" as="offset" />
          </mxGeometry>
        </mxCell>
        <mxCell id="5bhoiMZrqQOalWlNTHP4-21" value="" style="html=1;shadow=0;strokeColor=none;fillColor=#BBBBBB;" vertex="1" parent="5bhoiMZrqQOalWlNTHP4-16">
          <mxGeometry x="0.5" y="1" width="30" height="4" relative="1" as="geometry">
            <mxPoint x="20" y="-20" as="offset" />
          </mxGeometry>
        </mxCell>
        <mxCell id="5bhoiMZrqQOalWlNTHP4-22" value="&lt;font color=&quot;#ff3333&quot;&gt;&lt;b&gt;The first hall&lt;/b&gt;&lt;/font&gt;" style="html=1;shadow=0;strokeColor=none;fillColor=none;resizeWidth=1;fontColor=#FFFFFF;fontSize=14;" vertex="1" parent="5bhoiMZrqQOalWlNTHP4-16">
          <mxGeometry y="1" width="160" height="60" relative="1" as="geometry">
            <mxPoint x="10" y="-90" as="offset" />
          </mxGeometry>
        </mxCell>
        <mxCell id="5bhoiMZrqQOalWlNTHP4-24" value="&lt;font style=&quot;font-size: 21px;&quot;&gt;&lt;b&gt;Coffee &amp;amp; drinks&lt;/b&gt;&lt;/font&gt;" style="strokeWidth=1;shadow=0;dashed=0;align=center;html=1;shape=mxgraph.mockup.text.captcha;fontColor=#666666;fontSize=25;strokeColor=#666666;mainText=" vertex="1" parent="1">
          <mxGeometry x="250" y="60" width="160" height="40" as="geometry" />
        </mxCell>
        <mxCell id="5bhoiMZrqQOalWlNTHP4-25" value="" style="verticalLabelPosition=bottom;verticalAlign=top;html=1;shadow=0;dashed=0;strokeWidth=1;shape=mxgraph.android.phone2;strokeColor=#c0c0c0;" vertex="1" parent="1">
          <mxGeometry x="440" y="20" width="200" height="390" as="geometry" />
        </mxCell>
        <mxCell id="5bhoiMZrqQOalWlNTHP4-26" value="&lt;font style=&quot;font-size: 21px;&quot;&gt;&lt;b&gt;Coffee &amp;amp; drinks&lt;/b&gt;&lt;/font&gt;" style="strokeWidth=1;shadow=0;dashed=0;align=center;html=1;shape=mxgraph.mockup.text.captcha;fontColor=#666666;fontSize=25;strokeColor=#666666;mainText=" vertex="1" parent="1">
          <mxGeometry x="460" y="60" width="160" height="40" as="geometry" />
        </mxCell>
        <mxCell id="5bhoiMZrqQOalWlNTHP4-27" value="" style="strokeWidth=1;shadow=0;dashed=0;align=center;html=1;shape=mxgraph.mockup.forms.rrect;rSize=5;strokeColor=#999999;fillColor=#ffffff;" vertex="1" parent="1">
          <mxGeometry x="250" y="110" width="160" height="130" as="geometry" />
        </mxCell>
        <mxCell id="5bhoiMZrqQOalWlNTHP4-28" value="October 2014" style="strokeWidth=1;shadow=0;dashed=0;align=center;html=1;shape=mxgraph.mockup.forms.anchor;fontColor=#999999;" vertex="1" parent="5bhoiMZrqQOalWlNTHP4-27">
          <mxGeometry x="30" y="5.942857142857142" width="100" height="14.857142857142856" as="geometry" />
        </mxCell>
        <mxCell id="5bhoiMZrqQOalWlNTHP4-29" value="&lt;" style="strokeWidth=1;shadow=0;dashed=0;align=center;html=1;shape=mxgraph.mockup.forms.rrect;rSize=4;strokeColor=#999999;fontColor=#008cff;fontSize=19;fontStyle=1;" vertex="1" parent="5bhoiMZrqQOalWlNTHP4-27">
          <mxGeometry x="8" y="5.942857142857142" width="25" height="14.857142857142856" as="geometry" />
        </mxCell>
        <mxCell id="5bhoiMZrqQOalWlNTHP4-30" value="&gt;" style="strokeWidth=1;shadow=0;dashed=0;align=center;html=1;shape=mxgraph.mockup.forms.rrect;rSize=4;strokeColor=#999999;fontColor=#008cff;fontSize=19;fontStyle=1;" vertex="1" parent="5bhoiMZrqQOalWlNTHP4-27">
          <mxGeometry x="127" y="5.942857142857142" width="25" height="14.857142857142856" as="geometry" />
        </mxCell>
        <mxCell id="5bhoiMZrqQOalWlNTHP4-31" value="Mo" style="strokeWidth=1;shadow=0;dashed=0;align=center;html=1;shape=mxgraph.mockup.forms.anchor;fontColor=#999999;" vertex="1" parent="5bhoiMZrqQOalWlNTHP4-27">
          <mxGeometry x="10" y="20.799999999999997" width="20" height="14.857142857142856" as="geometry" />
        </mxCell>
        <mxCell id="5bhoiMZrqQOalWlNTHP4-32" value="Tu" style="strokeWidth=1;shadow=0;dashed=0;align=center;html=1;shape=mxgraph.mockup.forms.anchor;fontColor=#999999;" vertex="1" parent="5bhoiMZrqQOalWlNTHP4-27">
          <mxGeometry x="30" y="20.799999999999997" width="20" height="14.857142857142856" as="geometry" />
        </mxCell>
        <mxCell id="5bhoiMZrqQOalWlNTHP4-33" value="We" style="strokeWidth=1;shadow=0;dashed=0;align=center;html=1;shape=mxgraph.mockup.forms.anchor;fontColor=#999999;" vertex="1" parent="5bhoiMZrqQOalWlNTHP4-27">
          <mxGeometry x="50" y="20.799999999999997" width="20" height="14.857142857142856" as="geometry" />
        </mxCell>
        <mxCell id="5bhoiMZrqQOalWlNTHP4-34" value="Th" style="strokeWidth=1;shadow=0;dashed=0;align=center;html=1;shape=mxgraph.mockup.forms.anchor;fontColor=#999999;" vertex="1" parent="5bhoiMZrqQOalWlNTHP4-27">
          <mxGeometry x="70" y="20.799999999999997" width="20" height="14.857142857142856" as="geometry" />
        </mxCell>
        <mxCell id="5bhoiMZrqQOalWlNTHP4-35" value="Fr" style="strokeWidth=1;shadow=0;dashed=0;align=center;html=1;shape=mxgraph.mockup.forms.anchor;fontColor=#999999;" vertex="1" parent="5bhoiMZrqQOalWlNTHP4-27">
          <mxGeometry x="90" y="20.799999999999997" width="20" height="14.857142857142856" as="geometry" />
        </mxCell>
        <mxCell id="5bhoiMZrqQOalWlNTHP4-36" value="Sa" style="strokeWidth=1;shadow=0;dashed=0;align=center;html=1;shape=mxgraph.mockup.forms.anchor;fontColor=#999999;" vertex="1" parent="5bhoiMZrqQOalWlNTHP4-27">
          <mxGeometry x="110" y="20.799999999999997" width="20" height="14.857142857142856" as="geometry" />
        </mxCell>
        <mxCell id="5bhoiMZrqQOalWlNTHP4-37" value="Su" style="strokeWidth=1;shadow=0;dashed=0;align=center;html=1;shape=mxgraph.mockup.forms.anchor;fontColor=#999999;" vertex="1" parent="5bhoiMZrqQOalWlNTHP4-27">
          <mxGeometry x="130" y="20.799999999999997" width="20" height="14.857142857142856" as="geometry" />
        </mxCell>
        <mxCell id="5bhoiMZrqQOalWlNTHP4-38" value="1" style="strokeWidth=1;shadow=0;dashed=0;align=center;html=1;shape=mxgraph.mockup.forms.rrect;rSize=0;strokeColor=#999999;fontColor=#999999;" vertex="1" parent="5bhoiMZrqQOalWlNTHP4-27">
          <mxGeometry x="10" y="35.65714285714285" width="20" height="14.857142857142856" as="geometry" />
        </mxCell>
        <mxCell id="5bhoiMZrqQOalWlNTHP4-39" value="2" style="strokeWidth=1;shadow=0;dashed=0;align=center;html=1;shape=mxgraph.mockup.forms.rrect;rSize=0;strokeColor=#999999;fontColor=#999999;" vertex="1" parent="5bhoiMZrqQOalWlNTHP4-27">
          <mxGeometry x="30" y="35.65714285714285" width="20" height="14.857142857142856" as="geometry" />
        </mxCell>
        <mxCell id="5bhoiMZrqQOalWlNTHP4-40" value="3" style="strokeWidth=1;shadow=0;dashed=0;align=center;html=1;shape=mxgraph.mockup.forms.rrect;rSize=0;strokeColor=#999999;fontColor=#999999;" vertex="1" parent="5bhoiMZrqQOalWlNTHP4-27">
          <mxGeometry x="50" y="35.65714285714285" width="20" height="14.857142857142856" as="geometry" />
        </mxCell>
        <mxCell id="5bhoiMZrqQOalWlNTHP4-41" value="4" style="strokeWidth=1;shadow=0;dashed=0;align=center;html=1;shape=mxgraph.mockup.forms.rrect;rSize=0;strokeColor=#999999;fontColor=#999999;" vertex="1" parent="5bhoiMZrqQOalWlNTHP4-27">
          <mxGeometry x="70" y="35.65714285714285" width="20" height="14.857142857142856" as="geometry" />
        </mxCell>
        <mxCell id="5bhoiMZrqQOalWlNTHP4-42" value="5" style="strokeWidth=1;shadow=0;dashed=0;align=center;html=1;shape=mxgraph.mockup.forms.rrect;rSize=0;strokeColor=#999999;fontColor=#999999;" vertex="1" parent="5bhoiMZrqQOalWlNTHP4-27">
          <mxGeometry x="90" y="35.65714285714285" width="20" height="14.857142857142856" as="geometry" />
        </mxCell>
        <mxCell id="5bhoiMZrqQOalWlNTHP4-43" value="6" style="strokeWidth=1;shadow=0;dashed=0;align=center;html=1;shape=mxgraph.mockup.forms.rrect;rSize=0;strokeColor=#999999;fontColor=#999999;" vertex="1" parent="5bhoiMZrqQOalWlNTHP4-27">
          <mxGeometry x="110" y="35.65714285714285" width="20" height="14.857142857142856" as="geometry" />
        </mxCell>
        <mxCell id="5bhoiMZrqQOalWlNTHP4-44" value="7" style="strokeWidth=1;shadow=0;dashed=0;align=center;html=1;shape=mxgraph.mockup.forms.rrect;rSize=0;strokeColor=#999999;fontColor=#999999;" vertex="1" parent="5bhoiMZrqQOalWlNTHP4-27">
          <mxGeometry x="130" y="35.65714285714285" width="20" height="14.857142857142856" as="geometry" />
        </mxCell>
        <mxCell id="5bhoiMZrqQOalWlNTHP4-45" value="8" style="strokeWidth=1;shadow=0;dashed=0;align=center;html=1;shape=mxgraph.mockup.forms.rrect;rSize=0;strokeColor=#999999;fontColor=#999999;" vertex="1" parent="5bhoiMZrqQOalWlNTHP4-27">
          <mxGeometry x="10" y="50.514285714285705" width="20" height="14.857142857142856" as="geometry" />
        </mxCell>
        <mxCell id="5bhoiMZrqQOalWlNTHP4-46" value="9" style="strokeWidth=1;shadow=0;dashed=0;align=center;html=1;shape=mxgraph.mockup.forms.rrect;rSize=0;strokeColor=#999999;fontColor=#999999;" vertex="1" parent="5bhoiMZrqQOalWlNTHP4-27">
          <mxGeometry x="30" y="50.514285714285705" width="20" height="14.857142857142856" as="geometry" />
        </mxCell>
        <mxCell id="5bhoiMZrqQOalWlNTHP4-47" value="10" style="strokeWidth=1;shadow=0;dashed=0;align=center;html=1;shape=mxgraph.mockup.forms.rrect;rSize=0;strokeColor=#999999;fontColor=#999999;" vertex="1" parent="5bhoiMZrqQOalWlNTHP4-27">
          <mxGeometry x="50" y="50.514285714285705" width="20" height="14.857142857142856" as="geometry" />
        </mxCell>
        <mxCell id="5bhoiMZrqQOalWlNTHP4-48" value="11" style="strokeWidth=1;shadow=0;dashed=0;align=center;html=1;shape=mxgraph.mockup.forms.rrect;rSize=0;strokeColor=#999999;fontColor=#999999;" vertex="1" parent="5bhoiMZrqQOalWlNTHP4-27">
          <mxGeometry x="70" y="50.514285714285705" width="20" height="14.857142857142856" as="geometry" />
        </mxCell>
        <mxCell id="5bhoiMZrqQOalWlNTHP4-49" value="12" style="strokeWidth=1;shadow=0;dashed=0;align=center;html=1;shape=mxgraph.mockup.forms.rrect;rSize=0;strokeColor=#999999;fontColor=#999999;" vertex="1" parent="5bhoiMZrqQOalWlNTHP4-27">
          <mxGeometry x="90" y="50.514285714285705" width="20" height="14.857142857142856" as="geometry" />
        </mxCell>
        <mxCell id="5bhoiMZrqQOalWlNTHP4-50" value="13" style="strokeWidth=1;shadow=0;dashed=0;align=center;html=1;shape=mxgraph.mockup.forms.rrect;rSize=0;strokeColor=#999999;fontColor=#999999;" vertex="1" parent="5bhoiMZrqQOalWlNTHP4-27">
          <mxGeometry x="110" y="50.514285714285705" width="20" height="14.857142857142856" as="geometry" />
        </mxCell>
        <mxCell id="5bhoiMZrqQOalWlNTHP4-51" value="14" style="strokeWidth=1;shadow=0;dashed=0;align=center;html=1;shape=mxgraph.mockup.forms.rrect;rSize=0;strokeColor=#999999;fontColor=#999999;" vertex="1" parent="5bhoiMZrqQOalWlNTHP4-27">
          <mxGeometry x="130" y="50.514285714285705" width="20" height="14.857142857142856" as="geometry" />
        </mxCell>
        <mxCell id="5bhoiMZrqQOalWlNTHP4-52" value="15" style="strokeWidth=1;shadow=0;dashed=0;align=center;html=1;shape=mxgraph.mockup.forms.rrect;rSize=0;strokeColor=#999999;fontColor=#999999;" vertex="1" parent="5bhoiMZrqQOalWlNTHP4-27">
          <mxGeometry x="10" y="65.37142857142857" width="20" height="14.857142857142856" as="geometry" />
        </mxCell>
        <mxCell id="5bhoiMZrqQOalWlNTHP4-53" value="16" style="strokeWidth=1;shadow=0;dashed=0;align=center;html=1;shape=mxgraph.mockup.forms.rrect;rSize=0;strokeColor=#999999;fontColor=#999999;" vertex="1" parent="5bhoiMZrqQOalWlNTHP4-27">
          <mxGeometry x="30" y="65.37142857142857" width="20" height="14.857142857142856" as="geometry" />
        </mxCell>
        <mxCell id="5bhoiMZrqQOalWlNTHP4-54" value="17" style="strokeWidth=1;shadow=0;dashed=0;align=center;html=1;shape=mxgraph.mockup.forms.rrect;rSize=0;strokeColor=#999999;fontColor=#999999;" vertex="1" parent="5bhoiMZrqQOalWlNTHP4-27">
          <mxGeometry x="50" y="65.37142857142857" width="20" height="14.857142857142856" as="geometry" />
        </mxCell>
        <mxCell id="5bhoiMZrqQOalWlNTHP4-55" value="18" style="strokeWidth=1;shadow=0;dashed=0;align=center;html=1;shape=mxgraph.mockup.forms.rrect;rSize=0;strokeColor=#999999;fontColor=#999999;" vertex="1" parent="5bhoiMZrqQOalWlNTHP4-27">
          <mxGeometry x="70" y="65.37142857142857" width="20" height="14.857142857142856" as="geometry" />
        </mxCell>
        <mxCell id="5bhoiMZrqQOalWlNTHP4-56" value="19" style="strokeWidth=1;shadow=0;dashed=0;align=center;html=1;shape=mxgraph.mockup.forms.rrect;rSize=0;strokeColor=#999999;fontColor=#999999;" vertex="1" parent="5bhoiMZrqQOalWlNTHP4-27">
          <mxGeometry x="90" y="65.37142857142857" width="20" height="14.857142857142856" as="geometry" />
        </mxCell>
        <mxCell id="5bhoiMZrqQOalWlNTHP4-57" value="20" style="strokeWidth=1;shadow=0;dashed=0;align=center;html=1;shape=mxgraph.mockup.forms.rrect;rSize=0;strokeColor=#999999;fontColor=#999999;" vertex="1" parent="5bhoiMZrqQOalWlNTHP4-27">
          <mxGeometry x="110" y="65.37142857142857" width="20" height="14.857142857142856" as="geometry" />
        </mxCell>
        <mxCell id="5bhoiMZrqQOalWlNTHP4-58" value="21" style="strokeWidth=1;shadow=0;dashed=0;align=center;html=1;shape=mxgraph.mockup.forms.rrect;rSize=0;strokeColor=#999999;fontColor=#999999;" vertex="1" parent="5bhoiMZrqQOalWlNTHP4-27">
          <mxGeometry x="130" y="65.37142857142857" width="20" height="14.857142857142856" as="geometry" />
        </mxCell>
        <mxCell id="5bhoiMZrqQOalWlNTHP4-59" value="22" style="strokeWidth=1;shadow=0;dashed=0;align=center;html=1;shape=mxgraph.mockup.forms.rrect;rSize=0;strokeColor=#999999;fontColor=#999999;" vertex="1" parent="5bhoiMZrqQOalWlNTHP4-27">
          <mxGeometry x="10" y="80.22857142857141" width="20" height="14.857142857142856" as="geometry" />
        </mxCell>
        <mxCell id="5bhoiMZrqQOalWlNTHP4-60" value="23" style="strokeWidth=1;shadow=0;dashed=0;align=center;html=1;shape=mxgraph.mockup.forms.rrect;rSize=0;strokeColor=#999999;fontColor=#999999;" vertex="1" parent="5bhoiMZrqQOalWlNTHP4-27">
          <mxGeometry x="30" y="80.22857142857141" width="20" height="14.857142857142856" as="geometry" />
        </mxCell>
        <mxCell id="5bhoiMZrqQOalWlNTHP4-61" value="25" style="strokeWidth=1;shadow=0;dashed=0;align=center;html=1;shape=mxgraph.mockup.forms.rrect;rSize=0;strokeColor=#999999;fontColor=#999999;" vertex="1" parent="5bhoiMZrqQOalWlNTHP4-27">
          <mxGeometry x="70" y="80.22857142857141" width="20" height="14.857142857142856" as="geometry" />
        </mxCell>
        <mxCell id="5bhoiMZrqQOalWlNTHP4-62" value="26" style="strokeWidth=1;shadow=0;dashed=0;align=center;html=1;shape=mxgraph.mockup.forms.rrect;rSize=0;strokeColor=#999999;fontColor=#999999;" vertex="1" parent="5bhoiMZrqQOalWlNTHP4-27">
          <mxGeometry x="90" y="80.22857142857141" width="20" height="14.857142857142856" as="geometry" />
        </mxCell>
        <mxCell id="5bhoiMZrqQOalWlNTHP4-63" value="27" style="strokeWidth=1;shadow=0;dashed=0;align=center;html=1;shape=mxgraph.mockup.forms.rrect;rSize=0;strokeColor=#999999;fontColor=#999999;" vertex="1" parent="5bhoiMZrqQOalWlNTHP4-27">
          <mxGeometry x="110" y="80.22857142857141" width="20" height="14.857142857142856" as="geometry" />
        </mxCell>
        <mxCell id="5bhoiMZrqQOalWlNTHP4-64" value="28" style="strokeWidth=1;shadow=0;dashed=0;align=center;html=1;shape=mxgraph.mockup.forms.rrect;rSize=0;strokeColor=#999999;fontColor=#999999;" vertex="1" parent="5bhoiMZrqQOalWlNTHP4-27">
          <mxGeometry x="130" y="80.22857142857141" width="20" height="14.857142857142856" as="geometry" />
        </mxCell>
        <mxCell id="5bhoiMZrqQOalWlNTHP4-65" value="29" style="strokeWidth=1;shadow=0;dashed=0;align=center;html=1;shape=mxgraph.mockup.forms.rrect;rSize=0;strokeColor=#999999;fontColor=#999999;" vertex="1" parent="5bhoiMZrqQOalWlNTHP4-27">
          <mxGeometry x="10" y="95.08571428571427" width="20" height="14.857142857142856" as="geometry" />
        </mxCell>
        <mxCell id="5bhoiMZrqQOalWlNTHP4-66" value="30" style="strokeWidth=1;shadow=0;dashed=0;align=center;html=1;shape=mxgraph.mockup.forms.rrect;rSize=0;strokeColor=#999999;fontColor=#999999;" vertex="1" parent="5bhoiMZrqQOalWlNTHP4-27">
          <mxGeometry x="30" y="95.08571428571427" width="20" height="14.857142857142856" as="geometry" />
        </mxCell>
        <mxCell id="5bhoiMZrqQOalWlNTHP4-67" value="31" style="strokeWidth=1;shadow=0;dashed=0;align=center;html=1;shape=mxgraph.mockup.forms.rrect;rSize=0;strokeColor=#999999;fontColor=#999999;" vertex="1" parent="5bhoiMZrqQOalWlNTHP4-27">
          <mxGeometry x="50" y="95.08571428571427" width="20" height="14.857142857142856" as="geometry" />
        </mxCell>
        <mxCell id="5bhoiMZrqQOalWlNTHP4-68" value="1" style="strokeWidth=1;shadow=0;dashed=0;align=center;html=1;shape=mxgraph.mockup.forms.rrect;rSize=0;strokeColor=#999999;fontColor=#999999;fillColor=#ddeeff;" vertex="1" parent="5bhoiMZrqQOalWlNTHP4-27">
          <mxGeometry x="70" y="95.08571428571427" width="20" height="14.857142857142856" as="geometry" />
        </mxCell>
        <mxCell id="5bhoiMZrqQOalWlNTHP4-69" value="2" style="strokeWidth=1;shadow=0;dashed=0;align=center;html=1;shape=mxgraph.mockup.forms.rrect;rSize=0;strokeColor=#999999;fontColor=#999999;fillColor=#ddeeff;" vertex="1" parent="5bhoiMZrqQOalWlNTHP4-27">
          <mxGeometry x="90" y="95.08571428571427" width="20" height="14.857142857142856" as="geometry" />
        </mxCell>
        <mxCell id="5bhoiMZrqQOalWlNTHP4-70" value="3" style="strokeWidth=1;shadow=0;dashed=0;align=center;html=1;shape=mxgraph.mockup.forms.rrect;rSize=0;strokeColor=#999999;fontColor=#999999;fillColor=#ddeeff;" vertex="1" parent="5bhoiMZrqQOalWlNTHP4-27">
          <mxGeometry x="110" y="95.08571428571427" width="20" height="14.857142857142856" as="geometry" />
        </mxCell>
        <mxCell id="5bhoiMZrqQOalWlNTHP4-71" value="4" style="strokeWidth=1;shadow=0;dashed=0;align=center;html=1;shape=mxgraph.mockup.forms.rrect;rSize=0;strokeColor=#999999;fontColor=#999999;fillColor=#ddeeff;" vertex="1" parent="5bhoiMZrqQOalWlNTHP4-27">
          <mxGeometry x="130" y="95.08571428571427" width="20" height="14.857142857142856" as="geometry" />
        </mxCell>
        <mxCell id="5bhoiMZrqQOalWlNTHP4-72" value="5" style="strokeWidth=1;shadow=0;dashed=0;align=center;html=1;shape=mxgraph.mockup.forms.rrect;rSize=0;strokeColor=#999999;fontColor=#999999;fillColor=#ddeeff;" vertex="1" parent="5bhoiMZrqQOalWlNTHP4-27">
          <mxGeometry x="10" y="109.94285714285712" width="20" height="14.857142857142856" as="geometry" />
        </mxCell>
        <mxCell id="5bhoiMZrqQOalWlNTHP4-73" value="6" style="strokeWidth=1;shadow=0;dashed=0;align=center;html=1;shape=mxgraph.mockup.forms.rrect;rSize=0;strokeColor=#999999;fontColor=#999999;fillColor=#ddeeff;" vertex="1" parent="5bhoiMZrqQOalWlNTHP4-27">
          <mxGeometry x="30" y="109.94285714285712" width="20" height="14.857142857142856" as="geometry" />
        </mxCell>
        <mxCell id="5bhoiMZrqQOalWlNTHP4-74" value="7" style="strokeWidth=1;shadow=0;dashed=0;align=center;html=1;shape=mxgraph.mockup.forms.rrect;rSize=0;strokeColor=#999999;fontColor=#999999;fillColor=#ddeeff;" vertex="1" parent="5bhoiMZrqQOalWlNTHP4-27">
          <mxGeometry x="50" y="109.94285714285712" width="20" height="14.857142857142856" as="geometry" />
        </mxCell>
        <mxCell id="5bhoiMZrqQOalWlNTHP4-75" value="8" style="strokeWidth=1;shadow=0;dashed=0;align=center;html=1;shape=mxgraph.mockup.forms.rrect;rSize=0;strokeColor=#999999;fontColor=#999999;fillColor=#ddeeff;" vertex="1" parent="5bhoiMZrqQOalWlNTHP4-27">
          <mxGeometry x="70" y="109.94285714285712" width="20" height="14.857142857142856" as="geometry" />
        </mxCell>
        <mxCell id="5bhoiMZrqQOalWlNTHP4-76" value="9" style="strokeWidth=1;shadow=0;dashed=0;align=center;html=1;shape=mxgraph.mockup.forms.rrect;rSize=0;strokeColor=#999999;fontColor=#999999;fillColor=#ddeeff;" vertex="1" parent="5bhoiMZrqQOalWlNTHP4-27">
          <mxGeometry x="90" y="109.94285714285712" width="20" height="14.857142857142856" as="geometry" />
        </mxCell>
        <mxCell id="5bhoiMZrqQOalWlNTHP4-77" value="10" style="strokeWidth=1;shadow=0;dashed=0;align=center;html=1;shape=mxgraph.mockup.forms.rrect;rSize=0;strokeColor=#999999;fontColor=#999999;fillColor=#ddeeff;" vertex="1" parent="5bhoiMZrqQOalWlNTHP4-27">
          <mxGeometry x="110" y="109.94285714285712" width="20" height="14.857142857142856" as="geometry" />
        </mxCell>
        <mxCell id="5bhoiMZrqQOalWlNTHP4-78" value="11" style="strokeWidth=1;shadow=0;dashed=0;align=center;html=1;shape=mxgraph.mockup.forms.rrect;rSize=0;strokeColor=#999999;fontColor=#999999;fillColor=#ddeeff;" vertex="1" parent="5bhoiMZrqQOalWlNTHP4-27">
          <mxGeometry x="130" y="109.94285714285712" width="20" height="14.857142857142856" as="geometry" />
        </mxCell>
        <mxCell id="5bhoiMZrqQOalWlNTHP4-79" value="24" style="strokeWidth=1;shadow=0;dashed=0;align=center;html=1;shape=mxgraph.mockup.forms.rrect;rSize=0;strokeColor=#ff0000;fontColor=#ffffff;strokeWidth=2;fillColor=#008cff;" vertex="1" parent="5bhoiMZrqQOalWlNTHP4-27">
          <mxGeometry x="50" y="80.22857142857141" width="20" height="14.857142857142856" as="geometry" />
        </mxCell>
        <mxCell id="5bhoiMZrqQOalWlNTHP4-80" value="Confirm" style="strokeWidth=1;shadow=0;dashed=0;align=center;html=1;shape=mxgraph.mockup.buttons.button;strokeColor=#666666;fontColor=#ffffff;mainText=;buttonStyle=round;fontSize=17;fontStyle=1;fillColor=#008cff;whiteSpace=wrap;" vertex="1" parent="1">
          <mxGeometry x="255" y="330" width="150" height="40" as="geometry" />
        </mxCell>
        <mxCell id="5bhoiMZrqQOalWlNTHP4-81" value="&lt;table cellpadding=&quot;0&quot; cellspacing=&quot;0&quot; style=&quot;width:100%;height:100%;&quot;&gt;&lt;tbody&gt;&lt;tr&gt;&lt;td style=&quot;width:85%&quot;&gt;20:00&lt;br&gt;&lt;/td&gt;&lt;td style=&quot;width:15%&quot;&gt;&lt;/td&gt;&lt;/tr&gt;&lt;/tbody&gt;&lt;/table&gt;" style="strokeWidth=1;shadow=0;dashed=0;align=center;html=1;shape=mxgraph.mockup.forms.spinner;strokeColor=#999999;spinLayout=right;spinStyle=normal;adjStyle=triangle;fillColor=#aaddff;fontSize=17;fontColor=#666666;mainText=;html=1;overflow=fill;" vertex="1" parent="1">
          <mxGeometry x="290" y="250" width="120" height="30" as="geometry" />
        </mxCell>
        <mxCell id="5bhoiMZrqQOalWlNTHP4-82" value="&lt;table cellpadding=&quot;0&quot; cellspacing=&quot;0&quot; style=&quot;width:100%;height:100%;&quot;&gt;&lt;tbody&gt;&lt;tr&gt;&lt;td style=&quot;width:85%&quot;&gt;23:00&lt;br&gt;&lt;/td&gt;&lt;td style=&quot;width:15%&quot;&gt;&lt;/td&gt;&lt;/tr&gt;&lt;/tbody&gt;&lt;/table&gt;" style="strokeWidth=1;shadow=0;dashed=0;align=center;html=1;shape=mxgraph.mockup.forms.spinner;strokeColor=#999999;spinLayout=right;spinStyle=normal;adjStyle=triangle;fillColor=#aaddff;fontSize=17;fontColor=#666666;mainText=;html=1;overflow=fill;" vertex="1" parent="1">
          <mxGeometry x="290" y="290" width="120" height="30" as="geometry" />
        </mxCell>
        <mxCell id="5bhoiMZrqQOalWlNTHP4-83" value="&lt;font style=&quot;font-size: 13px;&quot; color=&quot;#000000&quot;&gt;From&lt;/font&gt;" style="strokeWidth=1;shadow=0;dashed=0;align=center;html=1;shape=mxgraph.mockup.text.textBox;fontColor=#666666;align=left;fontSize=17;spacingLeft=2;spacingTop=-3;whiteSpace=wrap;strokeColor=none;mainText=;fontStyle=1" vertex="1" parent="1">
          <mxGeometry x="250" y="250" width="40" height="30" as="geometry" />
        </mxCell>
        <mxCell id="5bhoiMZrqQOalWlNTHP4-84" value="&lt;font style=&quot;font-size: 14px;&quot; color=&quot;#000000&quot;&gt;To&lt;/font&gt;" style="strokeWidth=1;shadow=0;dashed=0;align=center;html=1;shape=mxgraph.mockup.text.textBox;fontColor=#666666;align=left;fontSize=17;spacingLeft=2;spacingTop=-3;whiteSpace=wrap;strokeColor=none;mainText=;fontStyle=1" vertex="1" parent="1">
          <mxGeometry x="250" y="290" width="40" height="30" as="geometry" />
        </mxCell>
        <mxCell id="5bhoiMZrqQOalWlNTHP4-127" value="" style="verticalLabelPosition=bottom;shadow=0;dashed=0;align=center;html=1;verticalAlign=top;strokeWidth=1;shape=mxgraph.mockup.navigation.scrollBar;strokeColor=#999999;barPos=20;fillColor2=#99ddff;strokeColor2=none;direction=north;" vertex="1" parent="1">
          <mxGeometry x="610" y="200" width="20" height="140" as="geometry" />
        </mxCell>
        <mxCell id="5bhoiMZrqQOalWlNTHP4-128" value="" style="shape=mxgraph.mockup.markup.redX;fillColor=#ff0000;html=1;shadow=0;whiteSpace=wrap;strokeColor=none;" vertex="1" parent="1">
          <mxGeometry x="462" y="222" width="16" height="16" as="geometry" />
        </mxCell>
        <mxCell id="5bhoiMZrqQOalWlNTHP4-129" value="Confirm" style="strokeWidth=1;shadow=0;dashed=0;align=center;html=1;shape=mxgraph.mockup.buttons.button;strokeColor=#666666;fontColor=#ffffff;mainText=;buttonStyle=round;fontSize=17;fontStyle=1;fillColor=#008cff;whiteSpace=wrap;" vertex="1" parent="1">
          <mxGeometry x="465" y="340" width="150" height="30" as="geometry" />
        </mxCell>
        <mxCell id="5bhoiMZrqQOalWlNTHP4-130" value="" style="dashed=0;shape=mxgraph.gmdl.checkbox;strokeColor=#666666;fillColor=none;strokeWidth=2;" vertex="1" parent="1">
          <mxGeometry x="460" y="220" width="20" height="20" as="geometry" />
        </mxCell>
        <mxCell id="5bhoiMZrqQOalWlNTHP4-131" value="" style="dashed=0;shape=mxgraph.gmdl.checkbox;strokeColor=#666666;fillColor=none;strokeWidth=2;" vertex="1" parent="1">
          <mxGeometry x="460" y="240" width="20" height="20" as="geometry" />
        </mxCell>
        <mxCell id="5bhoiMZrqQOalWlNTHP4-132" value="" style="dashed=0;shape=mxgraph.gmdl.checkbox;strokeColor=#666666;fillColor=none;strokeWidth=2;" vertex="1" parent="1">
          <mxGeometry x="460" y="200" width="20" height="20" as="geometry" />
        </mxCell>
        <mxCell id="5bhoiMZrqQOalWlNTHP4-133" value="" style="dashed=0;shape=mxgraph.gmdl.checkbox;strokeColor=#666666;fillColor=none;strokeWidth=2;" vertex="1" parent="1">
          <mxGeometry x="460" y="260" width="20" height="20" as="geometry" />
        </mxCell>
        <mxCell id="5bhoiMZrqQOalWlNTHP4-135" value="" style="dashed=0;shape=mxgraph.gmdl.checkbox;strokeColor=none;fillColor=#089953;strokeWidth=2;" vertex="1" parent="1">
          <mxGeometry x="462" y="262" width="16" height="16" as="geometry" />
        </mxCell>
        <mxCell id="5bhoiMZrqQOalWlNTHP4-136" value="" style="dashed=0;shape=mxgraph.gmdl.checkbox;strokeColor=#666666;fillColor=none;strokeWidth=2;" vertex="1" parent="1">
          <mxGeometry x="460" y="280" width="20" height="20" as="geometry" />
        </mxCell>
        <mxCell id="5bhoiMZrqQOalWlNTHP4-137" value="" style="dashed=0;shape=mxgraph.gmdl.checkbox;strokeColor=#666666;fillColor=none;strokeWidth=2;" vertex="1" parent="1">
          <mxGeometry x="460" y="300" width="20" height="20" as="geometry" />
        </mxCell>
        <mxCell id="5bhoiMZrqQOalWlNTHP4-138" value="" style="dashed=0;shape=mxgraph.gmdl.checkbox;strokeColor=#666666;fillColor=none;strokeWidth=2;" vertex="1" parent="1">
          <mxGeometry x="460" y="320" width="20" height="20" as="geometry" />
        </mxCell>
        <mxCell id="5bhoiMZrqQOalWlNTHP4-140" value="&lt;b style=&quot;font-size: 16px;&quot;&gt;&lt;font style=&quot;font-size: 14px;&quot;&gt;Table No. 7&lt;br&gt;&lt;/font&gt;&lt;/b&gt;" style="strokeWidth=1;shadow=0;dashed=0;align=center;html=1;shape=mxgraph.mockup.text.textBox;fontColor=#666666;align=left;fontSize=17;spacingLeft=4;spacingTop=-3;whiteSpace=wrap;strokeColor=#666666;mainText=" vertex="1" parent="1">
          <mxGeometry x="490" y="220" width="110" height="20" as="geometry" />
        </mxCell>
        <mxCell id="5bhoiMZrqQOalWlNTHP4-141" value="&lt;b style=&quot;font-size: 16px;&quot;&gt;&lt;font style=&quot;font-size: 14px;&quot;&gt;Table No. 6&lt;br&gt;&lt;/font&gt;&lt;/b&gt;" style="strokeWidth=1;shadow=0;dashed=0;align=center;html=1;shape=mxgraph.mockup.text.textBox;fontColor=#666666;align=left;fontSize=17;spacingLeft=4;spacingTop=-3;whiteSpace=wrap;strokeColor=#666666;mainText=" vertex="1" parent="1">
          <mxGeometry x="490" y="200" width="110" height="20" as="geometry" />
        </mxCell>
        <mxCell id="5bhoiMZrqQOalWlNTHP4-142" value="&lt;b style=&quot;font-size: 16px;&quot;&gt;&lt;font style=&quot;font-size: 14px;&quot;&gt;Table No. 12&lt;br&gt;&lt;/font&gt;&lt;/b&gt;" style="strokeWidth=1;shadow=0;dashed=0;align=center;html=1;shape=mxgraph.mockup.text.textBox;fontColor=#666666;align=left;fontSize=17;spacingLeft=4;spacingTop=-3;whiteSpace=wrap;strokeColor=#666666;mainText=" vertex="1" parent="1">
          <mxGeometry x="490" y="320" width="110" height="18" as="geometry" />
        </mxCell>
        <mxCell id="5bhoiMZrqQOalWlNTHP4-143" value="&lt;b style=&quot;font-size: 16px;&quot;&gt;&lt;font style=&quot;font-size: 14px;&quot;&gt;Table No. 11&lt;br&gt;&lt;/font&gt;&lt;/b&gt;" style="strokeWidth=1;shadow=0;dashed=0;align=center;html=1;shape=mxgraph.mockup.text.textBox;fontColor=#666666;align=left;fontSize=17;spacingLeft=4;spacingTop=-3;whiteSpace=wrap;strokeColor=#666666;mainText=" vertex="1" parent="1">
          <mxGeometry x="490" y="300" width="110" height="20" as="geometry" />
        </mxCell>
        <mxCell id="5bhoiMZrqQOalWlNTHP4-144" value="&lt;b style=&quot;font-size: 16px;&quot;&gt;&lt;font style=&quot;font-size: 14px;&quot;&gt;Table No. 10&lt;br&gt;&lt;/font&gt;&lt;/b&gt;" style="strokeWidth=1;shadow=0;dashed=0;align=center;html=1;shape=mxgraph.mockup.text.textBox;fontColor=#666666;align=left;fontSize=17;spacingLeft=4;spacingTop=-3;whiteSpace=wrap;strokeColor=#666666;mainText=" vertex="1" parent="1">
          <mxGeometry x="490" y="280" width="110" height="20" as="geometry" />
        </mxCell>
        <mxCell id="5bhoiMZrqQOalWlNTHP4-145" value="&lt;b style=&quot;font-size: 16px;&quot;&gt;&lt;font style=&quot;font-size: 14px;&quot;&gt;Table No. 8&lt;br&gt;&lt;/font&gt;&lt;/b&gt;" style="strokeWidth=1;shadow=0;dashed=0;align=center;html=1;shape=mxgraph.mockup.text.textBox;fontColor=#666666;align=left;fontSize=17;spacingLeft=4;spacingTop=-3;whiteSpace=wrap;strokeColor=#666666;mainText=" vertex="1" parent="1">
          <mxGeometry x="490" y="240" width="110" height="20" as="geometry" />
        </mxCell>
        <mxCell id="5bhoiMZrqQOalWlNTHP4-146" value="&lt;b style=&quot;font-size: 16px;&quot;&gt;&lt;font style=&quot;font-size: 14px;&quot;&gt;Table No. 9&lt;br&gt;&lt;/font&gt;&lt;/b&gt;" style="strokeWidth=1;shadow=0;dashed=0;align=center;html=1;shape=mxgraph.mockup.text.textBox;fontColor=#666666;align=left;fontSize=17;spacingLeft=4;spacingTop=-3;whiteSpace=wrap;strokeColor=#666666;mainText=" vertex="1" parent="1">
          <mxGeometry x="490" y="260" width="110" height="20" as="geometry" />
        </mxCell>
        <mxCell id="5bhoiMZrqQOalWlNTHP4-147" value="" style="verticalLabelPosition=bottom;verticalAlign=top;html=1;shadow=0;dashed=0;strokeWidth=1;shape=mxgraph.android.phone2;strokeColor=#c0c0c0;" vertex="1" parent="1">
          <mxGeometry x="650" y="20" width="200" height="390" as="geometry" />
        </mxCell>
        <mxCell id="5bhoiMZrqQOalWlNTHP4-148" value="&lt;font style=&quot;font-size: 21px;&quot;&gt;&lt;b&gt;Coffee &amp;amp; drinks&lt;/b&gt;&lt;/font&gt;" style="strokeWidth=1;shadow=0;dashed=0;align=center;html=1;shape=mxgraph.mockup.text.captcha;fontColor=#666666;fontSize=25;strokeColor=#666666;mainText=" vertex="1" parent="1">
          <mxGeometry x="670" y="60" width="160" height="40" as="geometry" />
        </mxCell>
        <UserObject label="&lt;font style=&quot;font-size: 14px;&quot;&gt;&lt;b&gt;%date{ddd mmm dd yyyy}%&lt;/b&gt;&lt;/font&gt;" placeholders="1" id="5bhoiMZrqQOalWlNTHP4-183">
          <mxCell style="text;html=1;strokeColor=#36393d;fillColor=#ffff88;align=center;verticalAlign=middle;whiteSpace=wrap;overflow=hidden;" vertex="1" parent="1">
            <mxGeometry x="670" y="110" width="160" height="40" as="geometry" />
          </mxCell>
        </UserObject>
        <mxCell id="5bhoiMZrqQOalWlNTHP4-184" value="&lt;div&gt;&lt;font style=&quot;font-size: 14px;&quot; color=&quot;#000000&quot;&gt;&lt;b&gt;From 20:00 to 23:00&lt;/b&gt;&lt;/font&gt;&lt;br&gt;&lt;/div&gt;" style="text;whiteSpace=wrap;html=1;align=center;fillColor=#dae8fc;strokeColor=#6c8ebf;" vertex="1" parent="1">
          <mxGeometry x="670" y="150" width="160" height="40" as="geometry" />
        </mxCell>
        <mxCell id="5bhoiMZrqQOalWlNTHP4-185" value="&lt;div align=&quot;center&quot;&gt;&lt;font size=&quot;1&quot;&gt;&lt;b style=&quot;font-size: 14px;&quot;&gt;The first hall&lt;/b&gt;&lt;/font&gt;&lt;/div&gt;" style="text;whiteSpace=wrap;html=1;align=center;fillColor=#ffe6cc;strokeColor=#d79b00;" vertex="1" parent="1">
          <mxGeometry x="670" y="190" width="160" height="40" as="geometry" />
        </mxCell>
        <mxCell id="5bhoiMZrqQOalWlNTHP4-186" value="&lt;div align=&quot;center&quot;&gt;&lt;b style=&quot;font-size: 16px;&quot;&gt;&lt;font style=&quot;font-size: 14px;&quot;&gt;Table No. 9&lt;/font&gt;&lt;/b&gt;&lt;br&gt;&lt;/div&gt;" style="text;whiteSpace=wrap;html=1;align=center;fillColor=#d5e8d4;strokeColor=#82b366;" vertex="1" parent="1">
          <mxGeometry x="670" y="230" width="160" height="40" as="geometry" />
        </mxCell>
        <mxCell id="5bhoiMZrqQOalWlNTHP4-187" value="Reserved" style="strokeWidth=1;shadow=0;dashed=0;align=center;html=1;shape=mxgraph.mockup.buttons.button;strokeColor=#666666;fontColor=#ffffff;mainText=;buttonStyle=round;fontSize=17;fontStyle=1;fillColor=#008cff;whiteSpace=wrap;" vertex="1" parent="1">
          <mxGeometry x="670" y="270" width="160" height="40" as="geometry" />
        </mxCell>
        <mxCell id="5bhoiMZrqQOalWlNTHP4-188" value="" style="shape=rect;fillColor=#e1d5e7;strokeColor=#9673a6;shadow=0;" vertex="1" parent="1">
          <mxGeometry x="660" y="340" width="180" height="30" as="geometry" />
        </mxCell>
        <mxCell id="5bhoiMZrqQOalWlNTHP4-194" value="" style="dashed=0;shape=mxgraph.gmdl.star;strokeColor=#666666;fillColor=#ffffff;" vertex="1" parent="5bhoiMZrqQOalWlNTHP4-188">
          <mxGeometry y="1" width="18" height="18" relative="1" as="geometry">
            <mxPoint x="13" y="-24" as="offset" />
          </mxGeometry>
        </mxCell>
        <mxCell id="5bhoiMZrqQOalWlNTHP4-195" value="" style="dashed=0;shape=mxgraph.gmdl.star;strokeColor=#666666;fillColor=#ffffff;" vertex="1" parent="5bhoiMZrqQOalWlNTHP4-188">
          <mxGeometry y="1" width="18" height="18" relative="1" as="geometry">
            <mxPoint x="47" y="-24" as="offset" />
          </mxGeometry>
        </mxCell>
        <mxCell id="5bhoiMZrqQOalWlNTHP4-196" value="" style="dashed=0;shape=mxgraph.gmdl.star;strokeColor=#666666;fillColor=#ffffff;" vertex="1" parent="5bhoiMZrqQOalWlNTHP4-188">
          <mxGeometry y="1" width="18" height="18" relative="1" as="geometry">
            <mxPoint x="81" y="-24" as="offset" />
          </mxGeometry>
        </mxCell>
        <mxCell id="5bhoiMZrqQOalWlNTHP4-197" value="" style="dashed=0;shape=mxgraph.gmdl.star;strokeColor=#666666;fillColor=#ffffff;" vertex="1" parent="5bhoiMZrqQOalWlNTHP4-188">
          <mxGeometry y="1" width="18" height="18" relative="1" as="geometry">
            <mxPoint x="115" y="-24" as="offset" />
          </mxGeometry>
        </mxCell>
        <mxCell id="5bhoiMZrqQOalWlNTHP4-198" value="" style="dashed=0;shape=mxgraph.gmdl.star;strokeColor=#666666;fillColor=#ffffff;" vertex="1" parent="5bhoiMZrqQOalWlNTHP4-188">
          <mxGeometry y="1" width="18" height="18" relative="1" as="geometry">
            <mxPoint x="149" y="-24" as="offset" />
          </mxGeometry>
        </mxCell>
        <mxCell id="5bhoiMZrqQOalWlNTHP4-208" value="&lt;div align=&quot;center&quot;&gt;&lt;b&gt;&lt;font style=&quot;font-size: 14px;&quot;&gt;Rate our app&lt;/font&gt;&lt;/b&gt;&lt;/div&gt;" style="text;whiteSpace=wrap;html=1;align=center;" vertex="1" parent="1">
          <mxGeometry x="670" y="308" width="160" height="30" as="geometry" />
        </mxCell>
      </root>
    </mxGraphModel>
  </diagram>
</mxfile>
